<svg version="1" xmlns="http://www.w3.org/2000/svg" width="1333.333" height="1333.333" viewBox="0 0 1000.000000 1000.000000"><path d="M481 78.7c-86.8 6.8-171.9 48-229.8 111.3-52.9 57.7-83.1 124.1-92.4 202.5-1.7 14.4-1.7 60.6 0 75 9.7 82.4 44.1 154.3 101.2 211.4 56.9 56.9 128.4 91.3 210.5 101.3 14.4 1.7 62.3 1.7 77 0 99.3-11.8 184.5-60.4 243.4-138.9 39.8-52.9 63.6-115.4 69.2-181 1.5-18.2.6-60.5-1.6-76.3-9.1-65.6-34.4-124.5-75.1-175.5-11.3-14.2-38.8-41.7-52.9-52.9-55.7-44.4-120-70.1-191-76.6-10.1-.9-48-1.1-58.5-.3zm59.5 11.4c45.1 3.9 91.9 18.1 131.9 40.1 29.5 16.2 52.4 33.6 77.6 58.8 18.5 18.5 30.3 32.6 43 51.5 58.2 86.6 73.2 196.8 40.4 296-31.2 94.6-102.9 171.4-195.2 209.4-31 12.7-65.3 21-100.1 24.2-16.8 1.5-57.1.6-73.1-1.6C332.9 750.2 225 660.1 184.2 534c-6.6-20.4-10.6-38.3-13.9-62-2.5-18.2-2.5-65.3 0-84 10.6-78.1 43.5-144.9 98.1-199.5 39.2-39.2 84.8-66.9 137.5-83.9 42.9-13.8 87-18.5 134.6-14.5z"/><path d="M675.3 260l-16.2.5-31.3 49.5c-17.3 27.2-43.3 68.2-57.8 91-14.5 22.8-26.4 42.2-26.4 43 0 .8 26.7 41.8 59.4 90.9l59.4 89.4 33.6-.6c18.4-.4 42.4-.7 53.3-.7 12.5 0 19.7-.4 19.7-1s-26.8-41.2-59.6-90.3l-59.5-89.4 57.5-91.2c31.7-50.1 57.6-91.4 57.6-91.6 0-.6-68.3-.2-89.7.5zM274 443v182h104V465h53v160h100V261H431v158h-53V261H274v182zM463.5 811.7c-3.4.9-6.5 3.5-8.3 6.7-1.4 2.6-1.7 6.7-2 24.8l-.4 21.8H465v-28h12v-9h-6.1c-6 0-6 0-5.7-2.7.4-3.7 4.3-5.6 8.6-4.4 3.1.9 3.2.8 4.3-3.1.6-2.6.7-4.4.1-5-1.1-1.1-11.8-1.9-14.7-1.1zM687.5 811.9l-4 .6-.3 22c-.1 14.5.1 22.9.9 24.7 1.8 4.4 13.3 8.1 14.3 4.5 1.4-4.4 1.5-7.7.1-7.7-.7 0-2.1-.7-2.9-1.6-1.4-1.3-1.6-4.8-1.6-22.5 0-16.1-.3-20.9-1.2-20.8-.7.1-3.1.5-5.3.8zM773.5 811.7c-7.1 1.4-6.5.7-6.5 8.9v7.6l-3.9-.7c-7.8-1.3-15.4 2.8-18.1 10-.7 1.6-1.2 5.8-1.2 9.1-.1 15 10.5 21.2 30.2 17.9l4-.7v-26.4c0-20.5-.3-26.4-1.2-26.3-.7.1-2.2.3-3.3.6zm-6.7 35l.3 9.3h-3.6c-5.5 0-8.5-3.5-8.5-10s2.4-9.3 7.8-8.8l3.7.3.3 9.2zM160 841v24h11v-20h18v20h11v-48h-11v18h-18v-18h-11v24zM500 841v24h11v-20.4l4.9 4.8c2.7 2.7 6.7 7.3 8.8 10.2l3.8 5.4h6.8c3.7 0 6.7-.3 6.7-.8 0-1.3-12.7-17.6-16.9-21.6l-4-3.9 10-10.6 10-10.6-7-.3-6.9-.3-5 5.3c-2.7 2.9-6.3 6.9-8 8.8l-3.1 3.5-.1-8.8V817h-11v24zM218.4 828.8c-11.2 5.3-13.9 23.2-4.8 31.9 4.5 4.2 11.8 5.8 20.4 4.4 3.4-.6 6.5-1.2 6.7-1.5.3-.2.1-2.4-.2-4.9-.7-4.5-.7-4.5-3.8-3.6-5.5 1.6-11.2 1.1-14.1-1.2-1.4-1.1-2.6-2.5-2.6-3s5.1-.9 11.6-.9h11.6l-.4-6.5c-.6-10-5.5-15.3-14.9-16.1-4-.4-6.4 0-9.5 1.4zm11.4 8.8c4.1 2.9 2.8 4.4-3.8 4.4-6.2 0-6.9-.5-4.7-3.2 2.3-3 5.4-3.4 8.5-1.2zM260 827.7c-1.4.2-4.2.9-6.2 1.4l-3.8 1V865h11v-28.2l6 .4 6 .4.8-4c.5-2.3.6-4.4.3-4.8-.8-.9-11-1.7-14.1-1.1zM287.3 828.9c-15 6.9-12.8 32 3.2 36 15 3.8 26.8-9 22.6-24.5-3-11.1-14.9-16.4-25.8-11.5zm13.1 10.3c2.6 4.1 2.4 12-.4 14.8-2.6 2.6-6.4 2.5-9-.2-2.5-2.7-2.8-11.2-.4-14.6 2.1-3.1 7.8-3.1 9.8 0zM329.4 828.8c-11.2 5.3-13.9 23.2-4.8 31.9 4.5 4.2 11.8 5.8 20.4 4.4 3.4-.6 6.5-1.2 6.7-1.5.3-.2.1-2.4-.2-4.9-.7-4.5-.7-4.5-3.8-3.6-5.5 1.6-11.2 1.1-14.1-1.2-1.4-1.1-2.6-2.5-2.6-3s5.1-.9 11.6-.9h11.6l-.4-6.5c-.6-10-5.5-15.3-14.9-16.1-4-.4-6.4 0-9.5 1.4zm11.4 8.8c4.1 2.9 2.8 4.4-3.8 4.4-6.2 0-6.9-.5-4.7-3.2 2.3-3 5.4-3.4 8.5-1.2zM366.4 828.8c-4.8 2.3-6.9 6.5-6.1 11.8.8 4.9 2.2 6.3 9.3 9.5 7.3 3.2 8.4 4.5 5.1 6-1.8.8-3.8.7-8-.3-6.3-1.6-5.8-1.9-7.2 4.8l-.6 3.2 6.7 1.1c13.9 2.5 23.2-2.4 22.1-11.6-.6-5.6-2.4-7.5-10.3-10.9-3.5-1.5-6.4-3.3-6.4-4 0-2.5 6.7-3 12.1-.9 1.3.5 1.8-.3 2.3-3.6.4-2.3.3-4.6-.2-5.1s-4-1.1-7.8-1.4c-5.5-.4-7.7-.1-11 1.4zM421.5 828.2c-4 1.4-8.4 5.6-10.1 9.5-.8 1.8-1.4 5.8-1.4 9 .1 12.9 10.2 21.1 22.4 18.3 7.9-1.8 12.7-7.3 13.4-15.4.7-8.1-.5-12.2-4.5-16.6-4.9-5.5-12.5-7.3-19.8-4.8zm11.5 11.5c1.8 2.3 2.1 3.7 1.7 7.6-.5 5.5-2.9 8.7-6.7 8.7-3.8 0-6.2-3.2-6.7-8.7-.6-6 2.2-10.3 6.7-10.3 1.9 0 3.6.9 5 2.7zM556 827.5c-.8.2-3.2.6-5.2 1l-3.8.6V865h11v-28h3.4c5.6 0 6.6 2.4 6.6 16.2V865h11.2l-.4-14.3c-.3-15.4-1.1-17.9-6.3-21.3-2.3-1.5-13.1-2.8-16.5-1.9zM597.5 828.2c-4 1.4-8.4 5.6-10.1 9.5-.8 1.8-1.4 5.8-1.4 9 .1 12.9 10.2 21.1 22.4 18.3 7.9-1.8 12.7-7.3 13.4-15.4.7-8.1-.5-12.2-4.5-16.6-4.9-5.5-12.5-7.3-19.8-4.8zm11.5 11.5c1.8 2.3 2.1 3.7 1.7 7.6-.5 5.5-2.9 8.7-6.7 8.7-3.8 0-6.2-3.2-6.7-8.7-.6-6 2.2-10.3 6.7-10.3 1.9 0 3.6.9 5 2.7zM713.5 828.8c-4.8 2.3-6.9 4.5-9 9.5-3.2 7.7-.9 18.9 4.9 23.5 4 3.1 11.9 4.4 19 3.2 3.3-.5 6.3-1.3 6.7-1.7.4-.5.4-2.6 0-4.8-.5-2.8-1.2-3.9-2.2-3.6-3.6.9-10 1.3-12.3.7-2.6-.6-5.6-3.1-5.6-4.7 0-.5 5.1-.9 11.5-.9H738v-4.8c0-5.6-3.2-12.7-7.1-15.4-3.8-2.8-12.5-3.3-17.4-1zM725 838c3.2 3.2 2.4 4-4 4-6.6 0-7.9-1.5-3.8-4.4 3-2.1 5.4-2 7.8.4zM796.7 828.4c-7.9 2.9-12.5 10.7-11.4 19.1 1.5 10.4 6.5 14.8 16.5 14.3 6.8-.3 7.8.6 4.1 4.3-1.8 1.8-3 2.1-7.8 1.7-3.1-.3-6.4-.8-7.3-1.2-1.3-.6-1.9.1-2.8 3.4-1.6 6-.8 6.5 11.5 6.5 8.9 0 10.7-.3 13.2-2.1 5.6-4.1 6.3-7.1 6.3-27v-18.2l-2.3-.6c-6-1.5-16.3-1.6-20-.2zm11.1 15.8l-.3 8.3-3.3.3c-4.8.5-7.2-2-7.2-7.5s3.3-9.3 8-9.3h3.1l-.3 8.2zM836.2 829.1c-6.2 3.1-9.3 8.9-9.4 17.3 0 10.8 5.4 17.4 15.8 19 3.7.5 15.1-.7 16.2-1.8.2-.3.1-2.5-.2-5l-.7-4.4-3.2.9c-5.5 1.6-11.2 1.1-14.1-1.2-1.4-1.1-2.6-2.5-2.6-3s5.1-.9 11.5-.9H861v-5.5c0-7.7-2.9-13.1-8.3-15.6-5.5-2.5-11.2-2.4-16.5.2zm12.6 9.6l2.7 2.8-3.2.3c-1.8.2-5 .2-7 0l-3.8-.3 2.7-2.8c1.5-1.5 3.4-2.7 4.3-2.7.9 0 2.8 1.2 4.3 2.7zM625 829.3c0 1.9 7.6 25.6 10 31.3 1.9 4.4 2 4.5 6.2 4.2l4.2-.3 3-9.3 2.9-9.4 3 9.7 3.1 9.6 4.5-.3 4.6-.3 5.1-15c2.8-8.3 5.5-16.5 5.9-18.3l.7-3.3-5.8.3-5.7.3-2.5 10.4c-1.6 6.8-2.7 9.9-3.3 9-.4-.8-1.8-5.6-3.1-10.7l-2.2-9.2h-8.1l-3 11.2-2.9 11.3-2.7-11-2.6-11-5.7-.3c-4.3-.2-5.6 0-5.6 1.1z"/></svg>